G04 EAGLE Gerber RS-274X export*
G75*
%MOMM*%
%FSLAX34Y34*%
%LPD*%
%INBottom Copper*%
%IPPOS*%
%AMOC8*
5,1,8,0,0,1.08239X$1,22.5*%
G01*
%ADD10C,1.676400*%
%ADD11C,1.320800*%
%ADD12P,1.429621X8X22.500000*%
%ADD13C,1.879600*%
%ADD14C,1.422400*%
%ADD15C,1.905000*%
%ADD16C,0.152400*%
%ADD17C,0.756400*%


D10*
X673100Y1028700D03*
X774700Y1028700D03*
X927100Y1079500D03*
X927100Y977900D03*
D11*
X431800Y996696D02*
X431800Y1009904D01*
X457200Y1009904D02*
X457200Y996696D01*
X457200Y1072896D02*
X457200Y1086104D01*
X431800Y1086104D02*
X431800Y1072896D01*
X482600Y1009904D02*
X482600Y996696D01*
X508000Y996696D02*
X508000Y1009904D01*
X482600Y1072896D02*
X482600Y1086104D01*
X508000Y1086104D02*
X508000Y1072896D01*
X247904Y965200D02*
X234696Y965200D01*
X234696Y990600D02*
X247904Y990600D01*
X247904Y1117600D02*
X234696Y1117600D01*
X234696Y1143000D02*
X247904Y1143000D01*
X247904Y1016000D02*
X234696Y1016000D01*
X234696Y1041400D02*
X247904Y1041400D01*
X247904Y1092200D02*
X234696Y1092200D01*
X234696Y1066800D02*
X247904Y1066800D01*
X171704Y1143000D02*
X158496Y1143000D01*
X158496Y1117600D02*
X171704Y1117600D01*
X171704Y1092200D02*
X158496Y1092200D01*
X158496Y1066800D02*
X171704Y1066800D01*
X171704Y1041400D02*
X158496Y1041400D01*
X158496Y1016000D02*
X171704Y1016000D01*
X171704Y990600D02*
X158496Y990600D01*
X158496Y965200D02*
X171704Y965200D01*
X1110996Y939800D02*
X1124204Y939800D01*
X1124204Y965200D02*
X1110996Y965200D01*
X1048004Y965200D02*
X1034796Y965200D01*
X1034796Y939800D02*
X1048004Y939800D01*
X1110996Y990600D02*
X1124204Y990600D01*
X1124204Y1016000D02*
X1110996Y1016000D01*
X1048004Y990600D02*
X1034796Y990600D01*
X1034796Y1016000D02*
X1048004Y1016000D01*
D12*
X50800Y63500D03*
X76200Y63500D03*
X241300Y63500D03*
X266700Y63500D03*
X419100Y63500D03*
X444500Y63500D03*
X609600Y63500D03*
X635000Y63500D03*
X812800Y63500D03*
X838200Y63500D03*
X1016000Y63500D03*
X1041400Y63500D03*
X1206500Y63500D03*
X1231900Y63500D03*
X1371600Y63500D03*
X1397000Y63500D03*
D13*
X927100Y914400D03*
X927100Y838200D03*
X1003300Y1028700D03*
X1003300Y1104900D03*
D14*
X444500Y883412D02*
X444500Y869188D01*
X469900Y869188D02*
X469900Y883412D01*
D15*
X905510Y622300D03*
X905510Y647700D03*
X905510Y673100D03*
X905510Y698500D03*
X905510Y723900D03*
X905510Y749300D03*
X905510Y774700D03*
X821690Y774700D03*
X821690Y749300D03*
X821690Y723900D03*
X821690Y698500D03*
X821690Y673100D03*
X821690Y647700D03*
X821690Y622300D03*
X1426210Y622300D03*
X1426210Y647700D03*
X1426210Y673100D03*
X1426210Y698500D03*
X1426210Y723900D03*
X1426210Y749300D03*
X1426210Y774700D03*
X1342390Y774700D03*
X1342390Y749300D03*
X1342390Y723900D03*
X1342390Y698500D03*
X1342390Y673100D03*
X1342390Y647700D03*
X1342390Y622300D03*
X1261110Y622300D03*
X1261110Y647700D03*
X1261110Y673100D03*
X1261110Y698500D03*
X1261110Y723900D03*
X1261110Y749300D03*
X1261110Y774700D03*
X1177290Y774700D03*
X1177290Y749300D03*
X1177290Y723900D03*
X1177290Y698500D03*
X1177290Y673100D03*
X1177290Y647700D03*
X1177290Y622300D03*
X1083310Y622300D03*
X1083310Y647700D03*
X1083310Y673100D03*
X1083310Y698500D03*
X1083310Y723900D03*
X1083310Y749300D03*
X1083310Y774700D03*
X999490Y774700D03*
X999490Y749300D03*
X999490Y723900D03*
X999490Y698500D03*
X999490Y673100D03*
X999490Y647700D03*
X999490Y622300D03*
X656590Y622300D03*
X656590Y647700D03*
X656590Y673100D03*
X656590Y698500D03*
X656590Y723900D03*
X656590Y749300D03*
X656590Y774700D03*
X740410Y774700D03*
X740410Y749300D03*
X740410Y723900D03*
X740410Y698500D03*
X740410Y673100D03*
X740410Y647700D03*
X740410Y622300D03*
X575310Y622300D03*
X575310Y647700D03*
X575310Y673100D03*
X575310Y698500D03*
X575310Y723900D03*
X575310Y749300D03*
X575310Y774700D03*
X491490Y774700D03*
X491490Y749300D03*
X491490Y723900D03*
X491490Y698500D03*
X491490Y673100D03*
X491490Y647700D03*
X491490Y622300D03*
X397510Y622300D03*
X397510Y647700D03*
X397510Y673100D03*
X397510Y698500D03*
X397510Y723900D03*
X397510Y749300D03*
X397510Y774700D03*
X313690Y774700D03*
X313690Y749300D03*
X313690Y723900D03*
X313690Y698500D03*
X313690Y673100D03*
X313690Y647700D03*
X313690Y622300D03*
X232410Y622300D03*
X232410Y647700D03*
X232410Y673100D03*
X232410Y698500D03*
X232410Y723900D03*
X232410Y749300D03*
X232410Y774700D03*
X148590Y774700D03*
X148590Y749300D03*
X148590Y723900D03*
X148590Y698500D03*
X148590Y673100D03*
X148590Y647700D03*
X148590Y622300D03*
D11*
X983996Y508000D02*
X997204Y508000D01*
X997204Y482600D02*
X983996Y482600D01*
X983996Y355600D02*
X997204Y355600D01*
X1060196Y355600D02*
X1073404Y355600D01*
X997204Y457200D02*
X983996Y457200D01*
X983996Y431800D02*
X997204Y431800D01*
X997204Y381000D02*
X983996Y381000D01*
X983996Y406400D02*
X997204Y406400D01*
X1060196Y381000D02*
X1073404Y381000D01*
X1073404Y406400D02*
X1060196Y406400D01*
X1060196Y431800D02*
X1073404Y431800D01*
X1073404Y457200D02*
X1060196Y457200D01*
X1060196Y482600D02*
X1073404Y482600D01*
X1073404Y508000D02*
X1060196Y508000D01*
X304800Y273304D02*
X304800Y260096D01*
X279400Y260096D02*
X279400Y273304D01*
X152400Y273304D02*
X152400Y260096D01*
X152400Y197104D02*
X152400Y183896D01*
X254000Y260096D02*
X254000Y273304D01*
X228600Y273304D02*
X228600Y260096D01*
X177800Y260096D02*
X177800Y273304D01*
X203200Y273304D02*
X203200Y260096D01*
X177800Y197104D02*
X177800Y183896D01*
X203200Y183896D02*
X203200Y197104D01*
X228600Y197104D02*
X228600Y183896D01*
X254000Y183896D02*
X254000Y197104D01*
X279400Y197104D02*
X279400Y183896D01*
X304800Y183896D02*
X304800Y197104D01*
X838200Y260096D02*
X838200Y273304D01*
X812800Y273304D02*
X812800Y260096D01*
X685800Y260096D02*
X685800Y273304D01*
X685800Y197104D02*
X685800Y183896D01*
X787400Y260096D02*
X787400Y273304D01*
X762000Y273304D02*
X762000Y260096D01*
X711200Y260096D02*
X711200Y273304D01*
X736600Y273304D02*
X736600Y260096D01*
X711200Y197104D02*
X711200Y183896D01*
X736600Y183896D02*
X736600Y197104D01*
X762000Y197104D02*
X762000Y183896D01*
X787400Y183896D02*
X787400Y197104D01*
X812800Y197104D02*
X812800Y183896D01*
X838200Y183896D02*
X838200Y197104D01*
X1409700Y260096D02*
X1409700Y273304D01*
X1384300Y273304D02*
X1384300Y260096D01*
X1257300Y260096D02*
X1257300Y273304D01*
X1257300Y197104D02*
X1257300Y183896D01*
X1358900Y260096D02*
X1358900Y273304D01*
X1333500Y273304D02*
X1333500Y260096D01*
X1282700Y260096D02*
X1282700Y273304D01*
X1308100Y273304D02*
X1308100Y260096D01*
X1282700Y197104D02*
X1282700Y183896D01*
X1308100Y183896D02*
X1308100Y197104D01*
X1333500Y197104D02*
X1333500Y183896D01*
X1358900Y183896D02*
X1358900Y197104D01*
X1384300Y197104D02*
X1384300Y183896D01*
X1409700Y183896D02*
X1409700Y197104D01*
X1352804Y508000D02*
X1339596Y508000D01*
X1339596Y482600D02*
X1352804Y482600D01*
X1352804Y355600D02*
X1339596Y355600D01*
X1415796Y355600D02*
X1429004Y355600D01*
X1352804Y457200D02*
X1339596Y457200D01*
X1339596Y431800D02*
X1352804Y431800D01*
X1352804Y381000D02*
X1339596Y381000D01*
X1339596Y406400D02*
X1352804Y406400D01*
X1415796Y381000D02*
X1429004Y381000D01*
X1429004Y406400D02*
X1415796Y406400D01*
X1415796Y431800D02*
X1429004Y431800D01*
X1429004Y457200D02*
X1415796Y457200D01*
X1415796Y482600D02*
X1429004Y482600D01*
X1429004Y508000D02*
X1415796Y508000D01*
X1187704Y508000D02*
X1174496Y508000D01*
X1174496Y482600D02*
X1187704Y482600D01*
X1187704Y355600D02*
X1174496Y355600D01*
X1250696Y355600D02*
X1263904Y355600D01*
X1187704Y457200D02*
X1174496Y457200D01*
X1174496Y431800D02*
X1187704Y431800D01*
X1187704Y381000D02*
X1174496Y381000D01*
X1174496Y406400D02*
X1187704Y406400D01*
X1250696Y381000D02*
X1263904Y381000D01*
X1263904Y406400D02*
X1250696Y406400D01*
X1250696Y431800D02*
X1263904Y431800D01*
X1263904Y457200D02*
X1250696Y457200D01*
X1250696Y482600D02*
X1263904Y482600D01*
X1263904Y508000D02*
X1250696Y508000D01*
X679704Y508000D02*
X666496Y508000D01*
X666496Y482600D02*
X679704Y482600D01*
X679704Y355600D02*
X666496Y355600D01*
X742696Y355600D02*
X755904Y355600D01*
X679704Y457200D02*
X666496Y457200D01*
X666496Y431800D02*
X679704Y431800D01*
X679704Y381000D02*
X666496Y381000D01*
X666496Y406400D02*
X679704Y406400D01*
X742696Y381000D02*
X755904Y381000D01*
X755904Y406400D02*
X742696Y406400D01*
X742696Y431800D02*
X755904Y431800D01*
X755904Y457200D02*
X742696Y457200D01*
X742696Y482600D02*
X755904Y482600D01*
X755904Y508000D02*
X742696Y508000D01*
X501904Y508000D02*
X488696Y508000D01*
X488696Y482600D02*
X501904Y482600D01*
X501904Y355600D02*
X488696Y355600D01*
X564896Y355600D02*
X578104Y355600D01*
X501904Y457200D02*
X488696Y457200D01*
X488696Y431800D02*
X501904Y431800D01*
X501904Y381000D02*
X488696Y381000D01*
X488696Y406400D02*
X501904Y406400D01*
X564896Y381000D02*
X578104Y381000D01*
X578104Y406400D02*
X564896Y406400D01*
X564896Y431800D02*
X578104Y431800D01*
X578104Y457200D02*
X564896Y457200D01*
X564896Y482600D02*
X578104Y482600D01*
X578104Y508000D02*
X564896Y508000D01*
X324104Y508000D02*
X310896Y508000D01*
X310896Y482600D02*
X324104Y482600D01*
X324104Y355600D02*
X310896Y355600D01*
X387096Y355600D02*
X400304Y355600D01*
X324104Y457200D02*
X310896Y457200D01*
X310896Y431800D02*
X324104Y431800D01*
X324104Y381000D02*
X310896Y381000D01*
X310896Y406400D02*
X324104Y406400D01*
X387096Y381000D02*
X400304Y381000D01*
X400304Y406400D02*
X387096Y406400D01*
X387096Y431800D02*
X400304Y431800D01*
X400304Y457200D02*
X387096Y457200D01*
X387096Y482600D02*
X400304Y482600D01*
X400304Y508000D02*
X387096Y508000D01*
X159004Y508000D02*
X145796Y508000D01*
X145796Y482600D02*
X159004Y482600D01*
X159004Y355600D02*
X145796Y355600D01*
X221996Y355600D02*
X235204Y355600D01*
X159004Y457200D02*
X145796Y457200D01*
X145796Y431800D02*
X159004Y431800D01*
X159004Y381000D02*
X145796Y381000D01*
X145796Y406400D02*
X159004Y406400D01*
X221996Y381000D02*
X235204Y381000D01*
X235204Y406400D02*
X221996Y406400D01*
X221996Y431800D02*
X235204Y431800D01*
X235204Y457200D02*
X221996Y457200D01*
X221996Y482600D02*
X235204Y482600D01*
X235204Y508000D02*
X221996Y508000D01*
X818896Y508000D02*
X832104Y508000D01*
X832104Y482600D02*
X818896Y482600D01*
X818896Y355600D02*
X832104Y355600D01*
X895096Y355600D02*
X908304Y355600D01*
X832104Y457200D02*
X818896Y457200D01*
X818896Y431800D02*
X832104Y431800D01*
X832104Y381000D02*
X818896Y381000D01*
X818896Y406400D02*
X832104Y406400D01*
X895096Y381000D02*
X908304Y381000D01*
X908304Y406400D02*
X895096Y406400D01*
X895096Y431800D02*
X908304Y431800D01*
X908304Y457200D02*
X895096Y457200D01*
X895096Y482600D02*
X908304Y482600D01*
X908304Y508000D02*
X895096Y508000D01*
D16*
X393192Y509016D02*
X336804Y509016D01*
X327660Y518160D01*
X237744Y518160D01*
X228600Y509016D01*
X393192Y509016D02*
X393700Y508000D01*
X228600Y508000D02*
X228600Y509016D01*
X571500Y509016D02*
X653796Y509016D01*
X662940Y518160D01*
X739140Y518160D01*
X749300Y508000D01*
X838200Y190500D02*
X845820Y190500D01*
X1050036Y394716D01*
X1050036Y490728D01*
X1051560Y492252D02*
X1066800Y507492D01*
X1051560Y492252D02*
X1050036Y490728D01*
X1066800Y507492D02*
X1066800Y508000D01*
X970788Y507492D02*
X902208Y507492D01*
X970788Y507492D02*
X986028Y492252D01*
X1051560Y492252D01*
X902208Y507492D02*
X901700Y508000D01*
X1199388Y509016D02*
X1257300Y509016D01*
X1199388Y509016D02*
X1190244Y518160D01*
X1075944Y518160D01*
X1066800Y509016D01*
X1257300Y509016D02*
X1257300Y508000D01*
X1066800Y508000D02*
X1066800Y509016D01*
X806196Y507492D02*
X749808Y507492D01*
X806196Y507492D02*
X815340Y498348D01*
X891540Y498348D01*
X900684Y507492D01*
X749808Y507492D02*
X749300Y508000D01*
X900684Y507492D02*
X901700Y508000D01*
X1365504Y483108D02*
X1370076Y483108D01*
X1365504Y483108D02*
X1353312Y495300D01*
X1269492Y495300D01*
X1257300Y507492D01*
X1257300Y508000D01*
X477012Y509016D02*
X394716Y509016D01*
X477012Y509016D02*
X486156Y518160D01*
X562356Y518160D01*
X571500Y509016D01*
X394716Y509016D02*
X393700Y508000D01*
X571500Y508000D02*
X571500Y509016D01*
D17*
X1370076Y483108D03*
D16*
X672084Y356616D02*
X589788Y356616D01*
X580644Y365760D01*
X504444Y365760D01*
X495300Y356616D01*
X672084Y356616D02*
X673100Y355600D01*
X495300Y355600D02*
X495300Y356616D01*
X824484Y355092D02*
X824484Y298704D01*
X797052Y271272D01*
X797052Y256032D01*
X790956Y249936D01*
X702564Y249936D01*
X685800Y266700D01*
X824484Y355092D02*
X825500Y355600D01*
X1409700Y348996D02*
X1409700Y266700D01*
X1409700Y348996D02*
X1406652Y352044D01*
X1406652Y629412D01*
X1424940Y647700D01*
X1426210Y647700D01*
X841248Y173736D02*
X719328Y173736D01*
X841248Y173736D02*
X1050036Y382524D01*
X1050036Y384048D01*
X1062228Y396240D01*
X1095756Y396240D01*
X1181100Y481584D01*
X1181100Y482600D01*
D17*
X719328Y173736D03*
D16*
X51816Y70104D02*
X51816Y64008D01*
X51816Y70104D02*
X167640Y185928D01*
X167640Y199644D01*
X217932Y249936D01*
X231648Y249936D01*
X243840Y262128D01*
X243840Y350520D01*
X298704Y405384D01*
X298704Y487680D01*
X306324Y495300D01*
X978408Y495300D01*
X990600Y483108D01*
X51816Y64008D02*
X50800Y63500D01*
X990600Y482600D02*
X990600Y483108D01*
X1014984Y64008D02*
X850392Y64008D01*
X746760Y167640D01*
X662940Y167640D01*
X478536Y352044D01*
X478536Y464820D01*
X495300Y481584D01*
X1014984Y64008D02*
X1016000Y63500D01*
X495300Y481584D02*
X495300Y482600D01*
X1053084Y62484D02*
X1205484Y62484D01*
X1053084Y62484D02*
X1043940Y53340D01*
X766572Y53340D01*
X397764Y422148D01*
X377952Y422148D01*
X317500Y482600D01*
X1205484Y62484D02*
X1206500Y63500D01*
X576072Y714756D02*
X576072Y723900D01*
X576072Y714756D02*
X644652Y646176D01*
X644652Y633984D01*
X655320Y623316D01*
X576072Y723900D02*
X575310Y723900D01*
X655320Y623316D02*
X656590Y622300D01*
X574548Y623316D02*
X559308Y623316D01*
X496824Y685800D01*
X435864Y685800D01*
X397764Y723900D01*
X574548Y623316D02*
X575310Y622300D01*
X397764Y723900D02*
X397510Y723900D01*
X396240Y623316D02*
X381000Y623316D01*
X318516Y685800D01*
X271272Y685800D01*
X233172Y723900D01*
X396240Y623316D02*
X397510Y622300D01*
X233172Y723900D02*
X232410Y723900D01*
X228600Y64008D02*
X76200Y64008D01*
X228600Y64008D02*
X237744Y73152D01*
X257556Y73152D01*
X266700Y64008D01*
X76200Y64008D02*
X76200Y63500D01*
X266700Y64008D02*
X266700Y63500D01*
X621792Y64008D02*
X633984Y64008D01*
X621792Y64008D02*
X612648Y73152D01*
X454152Y73152D01*
X444500Y63500D01*
X633984Y64008D02*
X635000Y63500D01*
X1219200Y64008D02*
X1231392Y64008D01*
X1219200Y64008D02*
X1210056Y73152D01*
X1051560Y73152D01*
X1042416Y64008D01*
X1231392Y64008D02*
X1231900Y63500D01*
X1042416Y64008D02*
X1041400Y63500D01*
X190500Y1066800D02*
X165100Y1066800D01*
X190500Y1066800D02*
X241300Y1016000D01*
X1060704Y938784D02*
X1117092Y938784D01*
X1060704Y938784D02*
X1021080Y899160D01*
X826008Y899160D01*
X1117092Y938784D02*
X1117600Y939800D01*
D17*
X826008Y899160D03*
D16*
X254508Y356616D02*
X254508Y266700D01*
X254508Y356616D02*
X301752Y403860D01*
X301752Y486156D01*
X307848Y492252D01*
X592836Y492252D01*
X669036Y416052D01*
X795528Y416052D01*
X821436Y390144D01*
X891540Y390144D01*
X900684Y381000D01*
X254508Y266700D02*
X254000Y266700D01*
X900684Y381000D02*
X901700Y381000D01*
X850392Y406908D02*
X826008Y406908D01*
X850392Y406908D02*
X900684Y457200D01*
X826008Y406908D02*
X825500Y406400D01*
X900684Y457200D02*
X901700Y457200D01*
X589788Y445008D02*
X563880Y445008D01*
X589788Y445008D02*
X669036Y365760D01*
X687324Y365760D01*
X786384Y266700D01*
X787400Y266700D01*
D17*
X563880Y445008D03*
D16*
X1359408Y348996D02*
X1359408Y266700D01*
X1359408Y348996D02*
X1376172Y365760D01*
X1376172Y486156D01*
X1363980Y498348D01*
X1318260Y498348D01*
X1181100Y635508D01*
X1164336Y635508D01*
X1088136Y711708D01*
X986028Y711708D01*
X710184Y987552D01*
X345948Y987552D01*
X241300Y1092200D01*
X1358900Y266700D02*
X1359408Y266700D01*
X809244Y448056D02*
X809244Y464820D01*
X809244Y448056D02*
X825500Y431800D01*
X902208Y361188D02*
X902208Y356616D01*
X902208Y361188D02*
X917448Y376428D01*
X917448Y416052D01*
X901700Y431800D01*
X902208Y356616D02*
X901700Y355600D01*
X228600Y266700D02*
X152400Y190500D01*
X166116Y1110996D02*
X166116Y1117092D01*
X202692Y1074420D02*
X225552Y1051560D01*
X202692Y1074420D02*
X166116Y1110996D01*
X225552Y1051560D02*
X225552Y1037844D01*
X237744Y1025652D01*
X251460Y1025652D01*
X257556Y1019556D01*
X257556Y981456D01*
X241300Y965200D01*
X166116Y1117092D02*
X165100Y1117600D01*
X272796Y1080516D02*
X431292Y1080516D01*
X272796Y1080516D02*
X251460Y1101852D01*
X230124Y1101852D01*
X202692Y1074420D01*
X431292Y1080516D02*
X431800Y1079500D01*
X228600Y335280D02*
X228600Y266700D01*
X228600Y335280D02*
X211836Y352044D01*
X211836Y521208D02*
X211836Y935736D01*
X211836Y521208D02*
X211836Y352044D01*
X211836Y935736D02*
X241300Y965200D01*
X809244Y509016D02*
X824484Y509016D01*
X809244Y509016D02*
X797052Y521208D01*
X211836Y521208D01*
X824484Y509016D02*
X825500Y508000D01*
D17*
X809244Y464820D03*
D16*
X1041400Y990600D02*
X1092708Y990600D01*
X1117092Y966216D01*
X1117600Y965200D01*
X1041400Y990600D02*
X998220Y990600D01*
X986028Y978408D01*
X928116Y978408D01*
X927100Y977900D01*
X687324Y1028700D02*
X673100Y1028700D01*
X687324Y1028700D02*
X877824Y838200D01*
X927100Y838200D01*
X982980Y984504D02*
X987552Y984504D01*
X1018032Y1014984D01*
X1040892Y1014984D01*
X1041400Y1016000D01*
D17*
X982980Y984504D03*
D16*
X182880Y190500D02*
X177800Y190500D01*
X182880Y190500D02*
X323088Y50292D01*
X1231392Y50292D01*
X1348740Y167640D01*
X1348740Y211836D01*
X1400556Y263652D01*
X1400556Y647700D01*
X1424940Y672084D01*
X1426210Y673100D01*
X1118616Y984504D02*
X1118616Y990600D01*
X1118616Y984504D02*
X1330452Y772668D01*
X1330452Y769620D01*
X1338072Y762000D01*
X1347216Y762000D01*
X1414272Y694944D01*
X1414272Y684276D01*
X1424940Y673608D01*
X1118616Y990600D02*
X1117600Y990600D01*
X1424940Y673608D02*
X1426210Y673100D01*
M02*
