G04 EAGLE Gerber RS-274X export*
G75*
%MOMM*%
%FSLAX34Y34*%
%LPD*%
%INTop Copper*%
%IPPOS*%
%AMOC8*
5,1,8,0,0,1.08239X$1,22.5*%
G01*
%ADD10R,0.850000X0.900000*%
%ADD11R,0.800000X1.200000*%
%ADD12C,1.676400*%
%ADD13C,1.320800*%
%ADD14P,1.429621X8X22.500000*%
%ADD15C,1.879600*%
%ADD16C,1.422400*%
%ADD17C,1.905000*%
%ADD18R,0.348000X1.397000*%
%ADD19C,0.152400*%
%ADD20C,0.756400*%


D10*
X743500Y889000D03*
X755100Y889000D03*
D11*
X816500Y889000D03*
X834500Y889000D03*
D10*
X667300Y889000D03*
X678900Y889000D03*
X578400Y889000D03*
X590000Y889000D03*
D12*
X673100Y1028700D03*
X774700Y1028700D03*
X927100Y1079500D03*
X927100Y977900D03*
D13*
X431800Y996696D02*
X431800Y1009904D01*
X457200Y1009904D02*
X457200Y996696D01*
X457200Y1072896D02*
X457200Y1086104D01*
X431800Y1086104D02*
X431800Y1072896D01*
X482600Y1009904D02*
X482600Y996696D01*
X508000Y996696D02*
X508000Y1009904D01*
X482600Y1072896D02*
X482600Y1086104D01*
X508000Y1086104D02*
X508000Y1072896D01*
X247904Y965200D02*
X234696Y965200D01*
X234696Y990600D02*
X247904Y990600D01*
X247904Y1117600D02*
X234696Y1117600D01*
X234696Y1143000D02*
X247904Y1143000D01*
X247904Y1016000D02*
X234696Y1016000D01*
X234696Y1041400D02*
X247904Y1041400D01*
X247904Y1092200D02*
X234696Y1092200D01*
X234696Y1066800D02*
X247904Y1066800D01*
X171704Y1143000D02*
X158496Y1143000D01*
X158496Y1117600D02*
X171704Y1117600D01*
X171704Y1092200D02*
X158496Y1092200D01*
X158496Y1066800D02*
X171704Y1066800D01*
X171704Y1041400D02*
X158496Y1041400D01*
X158496Y1016000D02*
X171704Y1016000D01*
X171704Y990600D02*
X158496Y990600D01*
X158496Y965200D02*
X171704Y965200D01*
X1110996Y939800D02*
X1124204Y939800D01*
X1124204Y965200D02*
X1110996Y965200D01*
X1048004Y965200D02*
X1034796Y965200D01*
X1034796Y939800D02*
X1048004Y939800D01*
X1110996Y990600D02*
X1124204Y990600D01*
X1124204Y1016000D02*
X1110996Y1016000D01*
X1048004Y990600D02*
X1034796Y990600D01*
X1034796Y1016000D02*
X1048004Y1016000D01*
D14*
X50800Y63500D03*
X76200Y63500D03*
X241300Y63500D03*
X266700Y63500D03*
X419100Y63500D03*
X444500Y63500D03*
X609600Y63500D03*
X635000Y63500D03*
X812800Y63500D03*
X838200Y63500D03*
X1016000Y63500D03*
X1041400Y63500D03*
X1206500Y63500D03*
X1231900Y63500D03*
X1371600Y63500D03*
X1397000Y63500D03*
D10*
X1099100Y1079500D03*
X1110700Y1079500D03*
D15*
X927100Y914400D03*
X927100Y838200D03*
X1003300Y1028700D03*
X1003300Y1104900D03*
D16*
X444500Y883412D02*
X444500Y869188D01*
X469900Y869188D02*
X469900Y883412D01*
D17*
X905510Y622300D03*
X905510Y647700D03*
X905510Y673100D03*
X905510Y698500D03*
X905510Y723900D03*
X905510Y749300D03*
X905510Y774700D03*
X821690Y774700D03*
X821690Y749300D03*
X821690Y723900D03*
X821690Y698500D03*
X821690Y673100D03*
X821690Y647700D03*
X821690Y622300D03*
X1426210Y622300D03*
X1426210Y647700D03*
X1426210Y673100D03*
X1426210Y698500D03*
X1426210Y723900D03*
X1426210Y749300D03*
X1426210Y774700D03*
X1342390Y774700D03*
X1342390Y749300D03*
X1342390Y723900D03*
X1342390Y698500D03*
X1342390Y673100D03*
X1342390Y647700D03*
X1342390Y622300D03*
X1261110Y622300D03*
X1261110Y647700D03*
X1261110Y673100D03*
X1261110Y698500D03*
X1261110Y723900D03*
X1261110Y749300D03*
X1261110Y774700D03*
X1177290Y774700D03*
X1177290Y749300D03*
X1177290Y723900D03*
X1177290Y698500D03*
X1177290Y673100D03*
X1177290Y647700D03*
X1177290Y622300D03*
X1083310Y622300D03*
X1083310Y647700D03*
X1083310Y673100D03*
X1083310Y698500D03*
X1083310Y723900D03*
X1083310Y749300D03*
X1083310Y774700D03*
X999490Y774700D03*
X999490Y749300D03*
X999490Y723900D03*
X999490Y698500D03*
X999490Y673100D03*
X999490Y647700D03*
X999490Y622300D03*
X656590Y622300D03*
X656590Y647700D03*
X656590Y673100D03*
X656590Y698500D03*
X656590Y723900D03*
X656590Y749300D03*
X656590Y774700D03*
X740410Y774700D03*
X740410Y749300D03*
X740410Y723900D03*
X740410Y698500D03*
X740410Y673100D03*
X740410Y647700D03*
X740410Y622300D03*
X575310Y622300D03*
X575310Y647700D03*
X575310Y673100D03*
X575310Y698500D03*
X575310Y723900D03*
X575310Y749300D03*
X575310Y774700D03*
X491490Y774700D03*
X491490Y749300D03*
X491490Y723900D03*
X491490Y698500D03*
X491490Y673100D03*
X491490Y647700D03*
X491490Y622300D03*
X397510Y622300D03*
X397510Y647700D03*
X397510Y673100D03*
X397510Y698500D03*
X397510Y723900D03*
X397510Y749300D03*
X397510Y774700D03*
X313690Y774700D03*
X313690Y749300D03*
X313690Y723900D03*
X313690Y698500D03*
X313690Y673100D03*
X313690Y647700D03*
X313690Y622300D03*
X232410Y622300D03*
X232410Y647700D03*
X232410Y673100D03*
X232410Y698500D03*
X232410Y723900D03*
X232410Y749300D03*
X232410Y774700D03*
X148590Y774700D03*
X148590Y749300D03*
X148590Y723900D03*
X148590Y698500D03*
X148590Y673100D03*
X148590Y647700D03*
X148590Y622300D03*
D18*
X1285050Y1065260D03*
X1291550Y1065260D03*
X1298050Y1065260D03*
X1311050Y1065260D03*
X1304550Y1065260D03*
X1317550Y1065260D03*
X1324050Y1065260D03*
X1330550Y1065260D03*
X1337050Y1065260D03*
X1343550Y1065260D03*
X1285050Y992140D03*
X1291550Y992140D03*
X1298050Y992140D03*
X1304550Y992140D03*
X1311050Y992140D03*
X1317550Y992140D03*
X1324050Y992140D03*
X1330550Y992140D03*
X1337050Y992140D03*
X1343550Y992140D03*
X1350050Y992140D03*
X1356550Y992140D03*
X1356550Y1065260D03*
X1350050Y1065260D03*
D13*
X997204Y508000D02*
X983996Y508000D01*
X983996Y482600D02*
X997204Y482600D01*
X997204Y355600D02*
X983996Y355600D01*
X1060196Y355600D02*
X1073404Y355600D01*
X997204Y457200D02*
X983996Y457200D01*
X983996Y431800D02*
X997204Y431800D01*
X997204Y381000D02*
X983996Y381000D01*
X983996Y406400D02*
X997204Y406400D01*
X1060196Y381000D02*
X1073404Y381000D01*
X1073404Y406400D02*
X1060196Y406400D01*
X1060196Y431800D02*
X1073404Y431800D01*
X1073404Y457200D02*
X1060196Y457200D01*
X1060196Y482600D02*
X1073404Y482600D01*
X1073404Y508000D02*
X1060196Y508000D01*
X304800Y273304D02*
X304800Y260096D01*
X279400Y260096D02*
X279400Y273304D01*
X152400Y273304D02*
X152400Y260096D01*
X152400Y197104D02*
X152400Y183896D01*
X254000Y260096D02*
X254000Y273304D01*
X228600Y273304D02*
X228600Y260096D01*
X177800Y260096D02*
X177800Y273304D01*
X203200Y273304D02*
X203200Y260096D01*
X177800Y197104D02*
X177800Y183896D01*
X203200Y183896D02*
X203200Y197104D01*
X228600Y197104D02*
X228600Y183896D01*
X254000Y183896D02*
X254000Y197104D01*
X279400Y197104D02*
X279400Y183896D01*
X304800Y183896D02*
X304800Y197104D01*
X838200Y260096D02*
X838200Y273304D01*
X812800Y273304D02*
X812800Y260096D01*
X685800Y260096D02*
X685800Y273304D01*
X685800Y197104D02*
X685800Y183896D01*
X787400Y260096D02*
X787400Y273304D01*
X762000Y273304D02*
X762000Y260096D01*
X711200Y260096D02*
X711200Y273304D01*
X736600Y273304D02*
X736600Y260096D01*
X711200Y197104D02*
X711200Y183896D01*
X736600Y183896D02*
X736600Y197104D01*
X762000Y197104D02*
X762000Y183896D01*
X787400Y183896D02*
X787400Y197104D01*
X812800Y197104D02*
X812800Y183896D01*
X838200Y183896D02*
X838200Y197104D01*
X1409700Y260096D02*
X1409700Y273304D01*
X1384300Y273304D02*
X1384300Y260096D01*
X1257300Y260096D02*
X1257300Y273304D01*
X1257300Y197104D02*
X1257300Y183896D01*
X1358900Y260096D02*
X1358900Y273304D01*
X1333500Y273304D02*
X1333500Y260096D01*
X1282700Y260096D02*
X1282700Y273304D01*
X1308100Y273304D02*
X1308100Y260096D01*
X1282700Y197104D02*
X1282700Y183896D01*
X1308100Y183896D02*
X1308100Y197104D01*
X1333500Y197104D02*
X1333500Y183896D01*
X1358900Y183896D02*
X1358900Y197104D01*
X1384300Y197104D02*
X1384300Y183896D01*
X1409700Y183896D02*
X1409700Y197104D01*
X1352804Y508000D02*
X1339596Y508000D01*
X1339596Y482600D02*
X1352804Y482600D01*
X1352804Y355600D02*
X1339596Y355600D01*
X1415796Y355600D02*
X1429004Y355600D01*
X1352804Y457200D02*
X1339596Y457200D01*
X1339596Y431800D02*
X1352804Y431800D01*
X1352804Y381000D02*
X1339596Y381000D01*
X1339596Y406400D02*
X1352804Y406400D01*
X1415796Y381000D02*
X1429004Y381000D01*
X1429004Y406400D02*
X1415796Y406400D01*
X1415796Y431800D02*
X1429004Y431800D01*
X1429004Y457200D02*
X1415796Y457200D01*
X1415796Y482600D02*
X1429004Y482600D01*
X1429004Y508000D02*
X1415796Y508000D01*
X1187704Y508000D02*
X1174496Y508000D01*
X1174496Y482600D02*
X1187704Y482600D01*
X1187704Y355600D02*
X1174496Y355600D01*
X1250696Y355600D02*
X1263904Y355600D01*
X1187704Y457200D02*
X1174496Y457200D01*
X1174496Y431800D02*
X1187704Y431800D01*
X1187704Y381000D02*
X1174496Y381000D01*
X1174496Y406400D02*
X1187704Y406400D01*
X1250696Y381000D02*
X1263904Y381000D01*
X1263904Y406400D02*
X1250696Y406400D01*
X1250696Y431800D02*
X1263904Y431800D01*
X1263904Y457200D02*
X1250696Y457200D01*
X1250696Y482600D02*
X1263904Y482600D01*
X1263904Y508000D02*
X1250696Y508000D01*
X679704Y508000D02*
X666496Y508000D01*
X666496Y482600D02*
X679704Y482600D01*
X679704Y355600D02*
X666496Y355600D01*
X742696Y355600D02*
X755904Y355600D01*
X679704Y457200D02*
X666496Y457200D01*
X666496Y431800D02*
X679704Y431800D01*
X679704Y381000D02*
X666496Y381000D01*
X666496Y406400D02*
X679704Y406400D01*
X742696Y381000D02*
X755904Y381000D01*
X755904Y406400D02*
X742696Y406400D01*
X742696Y431800D02*
X755904Y431800D01*
X755904Y457200D02*
X742696Y457200D01*
X742696Y482600D02*
X755904Y482600D01*
X755904Y508000D02*
X742696Y508000D01*
X501904Y508000D02*
X488696Y508000D01*
X488696Y482600D02*
X501904Y482600D01*
X501904Y355600D02*
X488696Y355600D01*
X564896Y355600D02*
X578104Y355600D01*
X501904Y457200D02*
X488696Y457200D01*
X488696Y431800D02*
X501904Y431800D01*
X501904Y381000D02*
X488696Y381000D01*
X488696Y406400D02*
X501904Y406400D01*
X564896Y381000D02*
X578104Y381000D01*
X578104Y406400D02*
X564896Y406400D01*
X564896Y431800D02*
X578104Y431800D01*
X578104Y457200D02*
X564896Y457200D01*
X564896Y482600D02*
X578104Y482600D01*
X578104Y508000D02*
X564896Y508000D01*
X324104Y508000D02*
X310896Y508000D01*
X310896Y482600D02*
X324104Y482600D01*
X324104Y355600D02*
X310896Y355600D01*
X387096Y355600D02*
X400304Y355600D01*
X324104Y457200D02*
X310896Y457200D01*
X310896Y431800D02*
X324104Y431800D01*
X324104Y381000D02*
X310896Y381000D01*
X310896Y406400D02*
X324104Y406400D01*
X387096Y381000D02*
X400304Y381000D01*
X400304Y406400D02*
X387096Y406400D01*
X387096Y431800D02*
X400304Y431800D01*
X400304Y457200D02*
X387096Y457200D01*
X387096Y482600D02*
X400304Y482600D01*
X400304Y508000D02*
X387096Y508000D01*
X159004Y508000D02*
X145796Y508000D01*
X145796Y482600D02*
X159004Y482600D01*
X159004Y355600D02*
X145796Y355600D01*
X221996Y355600D02*
X235204Y355600D01*
X159004Y457200D02*
X145796Y457200D01*
X145796Y431800D02*
X159004Y431800D01*
X159004Y381000D02*
X145796Y381000D01*
X145796Y406400D02*
X159004Y406400D01*
X221996Y381000D02*
X235204Y381000D01*
X235204Y406400D02*
X221996Y406400D01*
X221996Y431800D02*
X235204Y431800D01*
X235204Y457200D02*
X221996Y457200D01*
X221996Y482600D02*
X235204Y482600D01*
X235204Y508000D02*
X221996Y508000D01*
X818896Y508000D02*
X832104Y508000D01*
X832104Y482600D02*
X818896Y482600D01*
X818896Y355600D02*
X832104Y355600D01*
X895096Y355600D02*
X908304Y355600D01*
X832104Y457200D02*
X818896Y457200D01*
X818896Y431800D02*
X832104Y431800D01*
X832104Y381000D02*
X818896Y381000D01*
X818896Y406400D02*
X832104Y406400D01*
X895096Y381000D02*
X908304Y381000D01*
X908304Y406400D02*
X895096Y406400D01*
X895096Y431800D02*
X908304Y431800D01*
X908304Y457200D02*
X895096Y457200D01*
X895096Y482600D02*
X908304Y482600D01*
X908304Y508000D02*
X895096Y508000D01*
D19*
X304800Y190500D02*
X298704Y190500D01*
X281940Y173736D01*
X251460Y173736D01*
X237744Y187452D01*
X237744Y201168D01*
X188976Y249936D01*
X149352Y249936D01*
X135636Y263652D01*
X135636Y409956D01*
X147828Y422148D01*
X163068Y422148D01*
X211836Y470916D01*
X211836Y490728D01*
X228600Y507492D01*
X228600Y508000D01*
X1409700Y246888D02*
X1409700Y190500D01*
X1409700Y246888D02*
X1400556Y256032D01*
X1400556Y483108D02*
X1400556Y486156D01*
X1400556Y483108D02*
X1400556Y256032D01*
X1400556Y486156D02*
X1422400Y508000D01*
X1400556Y483108D02*
X1370076Y483108D01*
D20*
X1370076Y483108D03*
D19*
X882396Y356616D02*
X826008Y356616D01*
X882396Y356616D02*
X891540Y365760D01*
X981456Y365760D01*
X990600Y356616D01*
X826008Y356616D02*
X825500Y355600D01*
X1181100Y355092D02*
X1257300Y278892D01*
X1181100Y355092D02*
X1181100Y355600D01*
X1333500Y355092D02*
X1345692Y355092D01*
X1333500Y355092D02*
X1257300Y278892D01*
X1345692Y355092D02*
X1346200Y355600D01*
X1257300Y278892D02*
X1257300Y266700D01*
X1048512Y356616D02*
X990600Y356616D01*
X1048512Y356616D02*
X1057656Y365760D01*
X1171956Y365760D01*
X1181100Y356616D01*
X990600Y356616D02*
X990600Y355600D01*
X1181100Y355600D02*
X1181100Y356616D01*
X673608Y355092D02*
X673608Y278892D01*
X685800Y266700D01*
X673608Y355092D02*
X673100Y355600D01*
X152400Y355600D02*
X152400Y345948D01*
X152400Y266700D01*
X248412Y355092D02*
X316992Y355092D01*
X248412Y355092D02*
X239268Y345948D01*
X152400Y345948D01*
X316992Y355092D02*
X317500Y355600D01*
X413004Y356616D02*
X495300Y356616D01*
X413004Y356616D02*
X403860Y365760D01*
X327660Y365760D01*
X317500Y355600D01*
X495300Y355600D02*
X495300Y356616D01*
X254508Y62484D02*
X242316Y62484D01*
X254508Y62484D02*
X266700Y50292D01*
X1097280Y50292D01*
X1293876Y246888D01*
X1363980Y246888D01*
X1383792Y266700D01*
X242316Y62484D02*
X241300Y63500D01*
X1383792Y266700D02*
X1384300Y266700D01*
X1345692Y509016D02*
X1345692Y563880D01*
X1261872Y647700D01*
X1345692Y509016D02*
X1346200Y508000D01*
X1261872Y647700D02*
X1261110Y647700D01*
X419100Y182880D02*
X419100Y63500D01*
X419100Y182880D02*
X656844Y420624D01*
X656844Y486156D01*
X662940Y492252D01*
X771144Y492252D01*
X815340Y448056D01*
X1123188Y448056D01*
X1147572Y472440D01*
X1336548Y472440D01*
X1345692Y481584D01*
X1346200Y482600D01*
X1181100Y508000D02*
X1181100Y550164D01*
X1083564Y647700D01*
X1083310Y647700D01*
X719328Y173736D02*
X609600Y64008D01*
X609600Y63500D01*
D20*
X719328Y173736D03*
D19*
X990600Y508000D02*
X990600Y563880D01*
X906780Y647700D01*
X905510Y647700D01*
X672084Y632460D02*
X672084Y509016D01*
X672084Y632460D02*
X656844Y647700D01*
X672084Y509016D02*
X673100Y508000D01*
X656844Y647700D02*
X656590Y647700D01*
X673608Y481584D02*
X673608Y477012D01*
X726948Y423672D01*
X726948Y149352D01*
X812800Y63500D01*
X673608Y481584D02*
X673100Y482600D01*
X495300Y508000D02*
X495300Y568452D01*
X574548Y647700D01*
X575310Y647700D01*
X318516Y569976D02*
X318516Y509016D01*
X318516Y569976D02*
X396240Y647700D01*
X318516Y509016D02*
X317500Y508000D01*
X396240Y647700D02*
X397510Y647700D01*
X152400Y568452D02*
X152400Y508000D01*
X152400Y568452D02*
X231648Y647700D01*
X232410Y647700D01*
X1362456Y62484D02*
X1371600Y62484D01*
X1362456Y62484D02*
X1347216Y47244D01*
X243840Y47244D01*
X132588Y158496D01*
X132588Y461772D01*
X152400Y481584D01*
X1371600Y63500D02*
X1371600Y62484D01*
X152400Y481584D02*
X152400Y482600D01*
X1409700Y623316D02*
X1424940Y623316D01*
X1409700Y623316D02*
X1347216Y685800D01*
X1299972Y685800D01*
X1261872Y723900D01*
X1424940Y623316D02*
X1426210Y622300D01*
X1261872Y723900D02*
X1261110Y723900D01*
X1260348Y623316D02*
X1245108Y623316D01*
X1182624Y685800D01*
X1121664Y685800D01*
X1083564Y723900D01*
X1260348Y623316D02*
X1261110Y622300D01*
X1083564Y723900D02*
X1083310Y723900D01*
X1082040Y623316D02*
X1066800Y623316D01*
X1004316Y685800D01*
X944880Y685800D01*
X906780Y723900D01*
X1082040Y623316D02*
X1083310Y622300D01*
X906780Y723900D02*
X905510Y723900D01*
X905256Y623316D02*
X888492Y623316D01*
X826008Y685800D01*
X694944Y685800D01*
X656844Y723900D01*
X905256Y623316D02*
X905510Y622300D01*
X656844Y723900D02*
X656590Y723900D01*
X443484Y62484D02*
X431292Y62484D01*
X422148Y53340D01*
X275844Y53340D01*
X266700Y62484D01*
X443484Y62484D02*
X444500Y63500D01*
X266700Y63500D02*
X266700Y62484D01*
X1232916Y64008D02*
X1359408Y64008D01*
X1368552Y73152D01*
X1386840Y73152D01*
X1395984Y64008D01*
X1232916Y64008D02*
X1231900Y63500D01*
X1395984Y64008D02*
X1397000Y63500D01*
X1004316Y62484D02*
X838200Y62484D01*
X1004316Y62484D02*
X1013460Y53340D01*
X1031748Y53340D01*
X1040892Y62484D01*
X1041400Y63500D01*
X800100Y62484D02*
X635508Y62484D01*
X800100Y62484D02*
X809244Y53340D01*
X829056Y53340D01*
X838200Y62484D01*
X635508Y62484D02*
X635000Y63500D01*
X838200Y63500D02*
X838200Y62484D01*
X1350264Y1065276D02*
X1356360Y1065276D01*
X1350264Y1065276D02*
X1350050Y1065260D01*
X1356360Y1065276D02*
X1356550Y1065260D01*
X1356360Y1063752D02*
X1356360Y1016508D01*
X1356360Y993648D01*
X1356550Y992140D01*
X1356360Y1063752D02*
X1356550Y1065260D01*
X1117092Y946404D02*
X1117092Y940308D01*
X1117092Y946404D02*
X1101852Y961644D01*
X1101852Y999744D01*
X1117092Y1014984D01*
X1117092Y940308D02*
X1117600Y939800D01*
X1117092Y1014984D02*
X1117600Y1016000D01*
X1118616Y1016508D02*
X1356360Y1016508D01*
X1118616Y1016508D02*
X1117600Y1016000D01*
X815340Y888492D02*
X755904Y888492D01*
X755100Y889000D01*
X815340Y888492D02*
X816500Y889000D01*
X655320Y890016D02*
X591312Y890016D01*
X655320Y890016D02*
X661416Y896112D01*
X673608Y896112D01*
X679704Y890016D01*
X591312Y890016D02*
X590000Y889000D01*
X678900Y889000D02*
X679704Y890016D01*
X751332Y885444D02*
X754380Y888492D01*
X751332Y885444D02*
X751332Y883920D01*
X748284Y880872D01*
X687324Y880872D01*
X679704Y888492D01*
X754380Y888492D02*
X755100Y889000D01*
X679704Y888492D02*
X678900Y889000D01*
X164592Y1066800D02*
X164592Y1072896D01*
X149352Y1088136D01*
X149352Y1127760D01*
X164592Y1143000D01*
X165100Y1143000D01*
X190500Y1118616D02*
X240792Y1118616D01*
X190500Y1118616D02*
X166116Y1143000D01*
X240792Y1118616D02*
X241300Y1117600D01*
X166116Y1143000D02*
X165100Y1143000D01*
X240792Y1014984D02*
X240792Y1004316D01*
X240792Y990600D01*
X241300Y990600D01*
X240792Y1014984D02*
X241300Y1016000D01*
X240792Y1004316D02*
X431292Y1004316D01*
X431800Y1003300D01*
X492252Y987552D02*
X589788Y890016D01*
X492252Y987552D02*
X478536Y987552D01*
X466344Y999744D01*
X466344Y1013460D01*
X460248Y1019556D01*
X448056Y1019556D01*
X431800Y1003300D01*
X589788Y890016D02*
X590000Y889000D01*
X816864Y890016D02*
X826008Y899160D01*
X816864Y890016D02*
X816500Y889000D01*
X76200Y978408D02*
X76200Y63500D01*
X76200Y978408D02*
X164592Y1066800D01*
X165100Y1066800D01*
D20*
X826008Y899160D03*
D19*
X1336548Y993648D02*
X1336548Y998220D01*
X1328928Y1005840D01*
X1203960Y1005840D01*
X960120Y762000D01*
X687324Y762000D01*
X661416Y736092D01*
X650748Y736092D01*
X588264Y673608D01*
X588264Y428244D01*
X576072Y416052D01*
X560832Y416052D01*
X512064Y367284D01*
X512064Y352044D01*
X367284Y207264D01*
X271272Y207264D01*
X268224Y204216D02*
X254508Y190500D01*
X268224Y204216D02*
X271272Y207264D01*
X1337050Y992140D02*
X1336548Y993648D01*
X254508Y190500D02*
X254000Y190500D01*
X266700Y204216D02*
X204216Y266700D01*
X266700Y204216D02*
X268224Y204216D01*
X204216Y266700D02*
X203200Y266700D01*
X1331976Y886968D02*
X1331976Y992124D01*
X1331976Y886968D02*
X1441704Y777240D01*
X1441704Y563880D01*
X1362456Y484632D01*
X1362456Y478536D01*
X1350264Y466344D01*
X1146048Y466344D01*
X1069848Y390144D01*
X911352Y390144D01*
X902208Y381000D01*
X1330550Y992140D02*
X1331976Y992124D01*
X902208Y381000D02*
X901700Y381000D01*
X1324356Y833628D02*
X1324356Y992124D01*
X1324356Y833628D02*
X1421892Y736092D01*
X1431036Y736092D01*
X1438656Y728472D01*
X1438656Y580644D01*
X1350264Y492252D01*
X937260Y492252D01*
X902208Y457200D01*
X1324050Y992140D02*
X1324356Y992124D01*
X902208Y457200D02*
X901700Y457200D01*
X1316736Y993648D02*
X1316736Y999744D01*
X1313688Y1002792D01*
X1205484Y1002792D01*
X938784Y736092D01*
X900684Y736092D01*
X893064Y728472D01*
X893064Y643128D01*
X900684Y635508D01*
X909828Y635508D01*
X917448Y627888D01*
X917448Y548640D01*
X826008Y457200D01*
X1317550Y992140D02*
X1316736Y993648D01*
X826008Y457200D02*
X825500Y457200D01*
X481584Y1080516D02*
X457200Y1080516D01*
X457200Y1079500D01*
X481584Y1080516D02*
X482600Y1079500D01*
X1098804Y1078992D02*
X1098804Y1013460D01*
X1057656Y972312D01*
X1057656Y961644D01*
X1051560Y955548D01*
X1021080Y955548D01*
X986028Y990600D01*
X923544Y990600D01*
X835152Y902208D01*
X835152Y890016D01*
X1098804Y1078992D02*
X1099100Y1079500D01*
X835152Y890016D02*
X834500Y889000D01*
X489204Y1080516D02*
X483108Y1080516D01*
X489204Y1080516D02*
X504444Y1095756D01*
X641604Y1095756D01*
X835152Y902208D01*
X482600Y1079500D02*
X483108Y1080516D01*
X697992Y890016D02*
X742188Y890016D01*
X697992Y890016D02*
X509016Y1078992D01*
X742188Y890016D02*
X743500Y889000D01*
X509016Y1078992D02*
X508000Y1079500D01*
X457200Y1003300D02*
X457200Y888492D01*
X469392Y876300D01*
X469900Y876300D01*
X482600Y1003300D02*
X460248Y1025652D01*
X175260Y1025652D01*
X166116Y1016508D01*
X165100Y1016000D01*
X166116Y990600D02*
X166116Y984504D01*
X385572Y765048D01*
X385572Y667512D01*
X393192Y659892D01*
X402336Y659892D01*
X478536Y583692D01*
X478536Y504444D01*
X490728Y492252D01*
X516636Y492252D01*
X563880Y445008D01*
X166116Y990600D02*
X165100Y990600D01*
D20*
X563880Y445008D03*
D19*
X812800Y266700D02*
X818388Y266700D01*
X835152Y249936D01*
X1316736Y249936D01*
X1333500Y266700D01*
X1286256Y1057656D02*
X1286256Y1063752D01*
X1286256Y1057656D02*
X1289304Y1054608D01*
X1339596Y1054608D01*
X1342644Y1057656D01*
X1342644Y1063752D01*
X1286256Y1063752D02*
X1285050Y1065260D01*
X1342644Y1063752D02*
X1343550Y1065260D01*
X1109472Y1080516D02*
X1106424Y1083564D01*
X1106424Y1085088D01*
X1086612Y1104900D01*
X1003300Y1104900D01*
X1109472Y1080516D02*
X1110700Y1079500D01*
X1098804Y996696D02*
X1042416Y940308D01*
X1098804Y996696D02*
X1098804Y1008888D01*
X1101852Y1011936D01*
X1101852Y1069848D01*
X1110996Y1078992D01*
X1042416Y940308D02*
X1041400Y939800D01*
X1124712Y1065276D02*
X1284732Y1065276D01*
X1124712Y1065276D02*
X1110996Y1078992D01*
X1284732Y1065276D02*
X1285050Y1065260D01*
X1110996Y1078992D02*
X1110700Y1079500D01*
X838200Y292608D02*
X838200Y266700D01*
X838200Y292608D02*
X900684Y355092D01*
X901700Y355600D01*
X900684Y432816D02*
X826008Y432816D01*
X825500Y431800D01*
X900684Y432816D02*
X901700Y431800D01*
X824484Y501396D02*
X824484Y507492D01*
X824484Y501396D02*
X809244Y486156D01*
X809244Y464820D01*
X824484Y507492D02*
X825500Y508000D01*
X158496Y190500D02*
X152400Y190500D01*
X158496Y190500D02*
X175260Y207264D01*
X211836Y207264D01*
X228600Y190500D01*
X228600Y266700D02*
X234696Y266700D01*
X251460Y283464D01*
X288036Y283464D01*
X304800Y266700D01*
X457200Y1104900D02*
X1003300Y1104900D01*
X457200Y1104900D02*
X431800Y1079500D01*
D20*
X809244Y464820D03*
D19*
X1344168Y986028D02*
X1344168Y992124D01*
X1344168Y986028D02*
X1351788Y978408D01*
X1359408Y978408D01*
X1363980Y982980D01*
X1363980Y1074420D01*
X1318260Y1120140D01*
X295656Y1120140D01*
X242316Y1066800D01*
X1343550Y992140D02*
X1344168Y992124D01*
X242316Y1066800D02*
X241300Y1066800D01*
X1350264Y992124D02*
X1350264Y986028D01*
X1354836Y981456D01*
X1357884Y981456D01*
X1360932Y984504D01*
X1360932Y1072896D01*
X1316736Y1117092D01*
X316992Y1117092D01*
X241300Y1041400D01*
X1350050Y992140D02*
X1350264Y992124D01*
X1286256Y992124D02*
X1286256Y862584D01*
X1424940Y723900D01*
X1286256Y992124D02*
X1285050Y992140D01*
X1424940Y723900D02*
X1426210Y723900D01*
X672084Y883920D02*
X667512Y888492D01*
X672084Y883920D02*
X672084Y882396D01*
X676656Y877824D01*
X890016Y877824D01*
X926592Y914400D01*
X667512Y888492D02*
X667300Y889000D01*
X926592Y914400D02*
X926592Y976884D01*
X927100Y977900D01*
X927100Y914400D02*
X926592Y914400D01*
X1040892Y966216D02*
X1040892Y970788D01*
X1004316Y1007364D01*
X1004316Y1028700D01*
X1040892Y966216D02*
X1041400Y965200D01*
X1004316Y1028700D02*
X1003300Y1028700D01*
X876300Y1028700D02*
X774700Y1028700D01*
X876300Y1028700D02*
X927100Y1079500D01*
X978408Y1028700D02*
X1003300Y1028700D01*
X978408Y1028700D02*
X928116Y1078992D01*
X927100Y1079500D01*
X582168Y885444D02*
X579120Y888492D01*
X582168Y885444D02*
X582168Y883920D01*
X591312Y874776D01*
X905256Y874776D01*
X982980Y952500D01*
X982980Y984504D01*
X579120Y888492D02*
X578400Y889000D01*
D20*
X982980Y984504D03*
M02*
