G04 EAGLE Gerber RS-274X export*
G75*
%MOMM*%
%FSLAX34Y34*%
%LPD*%
%INSilkscreen Bottom*%
%IPPOS*%
%AMOC8*
5,1,8,0,0,1.08239X$1,22.5*%
G01*
%ADD10C,0.203200*%
%ADD11C,0.127000*%

G36*
X664706Y597977D02*
X664706Y597977D01*
X664754Y597991D01*
X664844Y598008D01*
X665851Y598360D01*
X665895Y598385D01*
X665979Y598422D01*
X666882Y598990D01*
X666919Y599024D01*
X666993Y599078D01*
X667747Y599832D01*
X667776Y599874D01*
X667836Y599943D01*
X668403Y600846D01*
X668422Y600893D01*
X668465Y600974D01*
X668817Y601981D01*
X668825Y602031D01*
X668848Y602119D01*
X668968Y603179D01*
X668964Y603229D01*
X668968Y603321D01*
X668848Y604381D01*
X668834Y604429D01*
X668817Y604519D01*
X668465Y605526D01*
X668440Y605570D01*
X668403Y605654D01*
X667836Y606557D01*
X667802Y606594D01*
X667747Y606668D01*
X666993Y607422D01*
X666951Y607451D01*
X666882Y607511D01*
X665979Y608078D01*
X665932Y608097D01*
X665851Y608140D01*
X664844Y608492D01*
X664794Y608500D01*
X664706Y608523D01*
X663646Y608643D01*
X663596Y608639D01*
X663504Y608643D01*
X662444Y608523D01*
X662396Y608509D01*
X662306Y608492D01*
X661299Y608140D01*
X661255Y608115D01*
X661171Y608078D01*
X660268Y607511D01*
X660231Y607477D01*
X660157Y607422D01*
X659403Y606668D01*
X659374Y606626D01*
X659315Y606557D01*
X658747Y605654D01*
X658728Y605607D01*
X658685Y605526D01*
X658333Y604519D01*
X658325Y604469D01*
X658302Y604381D01*
X658182Y603321D01*
X658186Y603271D01*
X658182Y603179D01*
X658302Y602119D01*
X658316Y602071D01*
X658333Y601981D01*
X658685Y600974D01*
X658710Y600930D01*
X658747Y600846D01*
X659315Y599943D01*
X659349Y599906D01*
X659403Y599832D01*
X660157Y599078D01*
X660199Y599049D01*
X660268Y598990D01*
X661171Y598422D01*
X661218Y598403D01*
X661299Y598360D01*
X662306Y598008D01*
X662356Y598000D01*
X662444Y597977D01*
X663504Y597857D01*
X663554Y597861D01*
X663646Y597857D01*
X664706Y597977D01*
G37*
D10*
X727710Y787400D02*
X669290Y787400D01*
X708660Y609600D02*
X727710Y609600D01*
X688340Y609600D02*
X669290Y609600D01*
X688340Y609600D02*
X688343Y609847D01*
X688352Y610095D01*
X688367Y610342D01*
X688388Y610588D01*
X688415Y610834D01*
X688448Y611079D01*
X688487Y611324D01*
X688532Y611567D01*
X688583Y611809D01*
X688640Y612050D01*
X688702Y612289D01*
X688771Y612527D01*
X688845Y612763D01*
X688925Y612997D01*
X689010Y613229D01*
X689102Y613459D01*
X689198Y613687D01*
X689301Y613912D01*
X689408Y614135D01*
X689522Y614355D01*
X689640Y614572D01*
X689764Y614787D01*
X689893Y614998D01*
X690027Y615206D01*
X690166Y615411D01*
X690310Y615612D01*
X690458Y615810D01*
X690612Y616004D01*
X690770Y616194D01*
X690933Y616380D01*
X691100Y616562D01*
X691272Y616740D01*
X691448Y616914D01*
X691628Y617084D01*
X691813Y617249D01*
X692001Y617409D01*
X692193Y617565D01*
X692389Y617717D01*
X692588Y617863D01*
X692791Y618005D01*
X692998Y618141D01*
X693207Y618273D01*
X693420Y618399D01*
X693636Y618520D01*
X693854Y618636D01*
X694076Y618746D01*
X694300Y618851D01*
X694526Y618951D01*
X694755Y619045D01*
X694986Y619133D01*
X695220Y619216D01*
X695455Y619293D01*
X695692Y619364D01*
X695930Y619430D01*
X696170Y619489D01*
X696412Y619543D01*
X696655Y619591D01*
X696898Y619633D01*
X697143Y619669D01*
X697389Y619699D01*
X697635Y619723D01*
X697882Y619741D01*
X698129Y619753D01*
X698376Y619759D01*
X698624Y619759D01*
X698871Y619753D01*
X699118Y619741D01*
X699365Y619723D01*
X699611Y619699D01*
X699857Y619669D01*
X700102Y619633D01*
X700345Y619591D01*
X700588Y619543D01*
X700830Y619489D01*
X701070Y619430D01*
X701308Y619364D01*
X701545Y619293D01*
X701780Y619216D01*
X702014Y619133D01*
X702245Y619045D01*
X702474Y618951D01*
X702700Y618851D01*
X702924Y618746D01*
X703146Y618636D01*
X703364Y618520D01*
X703580Y618399D01*
X703793Y618273D01*
X704002Y618141D01*
X704209Y618005D01*
X704412Y617863D01*
X704611Y617717D01*
X704807Y617565D01*
X704999Y617409D01*
X705187Y617249D01*
X705372Y617084D01*
X705552Y616914D01*
X705728Y616740D01*
X705900Y616562D01*
X706067Y616380D01*
X706230Y616194D01*
X706388Y616004D01*
X706542Y615810D01*
X706690Y615612D01*
X706834Y615411D01*
X706973Y615206D01*
X707107Y614998D01*
X707236Y614787D01*
X707360Y614572D01*
X707478Y614355D01*
X707592Y614135D01*
X707699Y613912D01*
X707802Y613687D01*
X707898Y613459D01*
X707990Y613229D01*
X708075Y612997D01*
X708155Y612763D01*
X708229Y612527D01*
X708298Y612289D01*
X708360Y612050D01*
X708417Y611809D01*
X708468Y611567D01*
X708513Y611324D01*
X708552Y611079D01*
X708585Y610834D01*
X708612Y610588D01*
X708633Y610342D01*
X708648Y610095D01*
X708657Y609847D01*
X708660Y609600D01*
X727710Y609600D02*
X727710Y787400D01*
X669290Y787400D02*
X669290Y609600D01*
D11*
X702675Y602615D02*
X702675Y599130D01*
X702676Y599130D02*
X702674Y599059D01*
X702668Y598987D01*
X702659Y598917D01*
X702646Y598847D01*
X702629Y598777D01*
X702608Y598709D01*
X702584Y598642D01*
X702556Y598576D01*
X702525Y598512D01*
X702490Y598449D01*
X702452Y598389D01*
X702411Y598330D01*
X702367Y598274D01*
X702320Y598220D01*
X702271Y598169D01*
X702218Y598121D01*
X702163Y598075D01*
X702106Y598033D01*
X702046Y597993D01*
X701985Y597957D01*
X701921Y597924D01*
X701856Y597895D01*
X701790Y597869D01*
X701722Y597846D01*
X701653Y597827D01*
X701583Y597812D01*
X701513Y597801D01*
X701442Y597793D01*
X701371Y597789D01*
X701299Y597789D01*
X701228Y597793D01*
X701157Y597801D01*
X701087Y597812D01*
X701017Y597827D01*
X700948Y597846D01*
X700880Y597869D01*
X700814Y597895D01*
X700749Y597924D01*
X700685Y597957D01*
X700624Y597993D01*
X700564Y598033D01*
X700507Y598075D01*
X700452Y598121D01*
X700399Y598169D01*
X700350Y598220D01*
X700303Y598274D01*
X700259Y598330D01*
X700218Y598389D01*
X700180Y598449D01*
X700145Y598512D01*
X700114Y598576D01*
X700086Y598642D01*
X700062Y598709D01*
X700041Y598777D01*
X700024Y598847D01*
X700011Y598917D01*
X700002Y598987D01*
X699996Y599059D01*
X699994Y599130D01*
X699994Y602615D01*
X697006Y597789D02*
X695397Y597789D01*
X695332Y597791D01*
X695268Y597797D01*
X695204Y597807D01*
X695140Y597820D01*
X695078Y597838D01*
X695017Y597859D01*
X694957Y597883D01*
X694899Y597912D01*
X694842Y597944D01*
X694788Y597979D01*
X694736Y598017D01*
X694686Y598059D01*
X694639Y598103D01*
X694595Y598150D01*
X694553Y598200D01*
X694515Y598252D01*
X694480Y598306D01*
X694448Y598363D01*
X694419Y598421D01*
X694395Y598481D01*
X694374Y598542D01*
X694356Y598604D01*
X694343Y598668D01*
X694333Y598732D01*
X694327Y598796D01*
X694325Y598861D01*
X694325Y599398D01*
X694327Y599463D01*
X694333Y599527D01*
X694343Y599591D01*
X694356Y599655D01*
X694374Y599717D01*
X694395Y599778D01*
X694419Y599838D01*
X694448Y599896D01*
X694480Y599953D01*
X694515Y600007D01*
X694553Y600059D01*
X694595Y600109D01*
X694639Y600156D01*
X694686Y600200D01*
X694736Y600242D01*
X694788Y600280D01*
X694842Y600315D01*
X694899Y600347D01*
X694957Y600376D01*
X695017Y600400D01*
X695078Y600421D01*
X695140Y600439D01*
X695204Y600452D01*
X695268Y600462D01*
X695332Y600468D01*
X695397Y600470D01*
X697006Y600470D01*
X697006Y602615D01*
X694325Y602615D01*
M02*
