G04 EAGLE Gerber RS-274X export*
G75*
%MOMM*%
%FSLAX34Y34*%
%LPD*%
%INSoldermask Bottom*%
%IPPOS*%
%AMOC8*
5,1,8,0,0,1.08239X$1,22.5*%
G01*
%ADD10C,1.879600*%
%ADD11C,1.524000*%
%ADD12P,1.649562X8X22.500000*%
%ADD13C,2.082800*%
%ADD14C,1.625600*%
%ADD15C,2.133600*%
%ADD16C,0.863600*%
%ADD17C,0.959600*%


D10*
X673100Y1028700D03*
X774700Y1028700D03*
X927100Y1079500D03*
X927100Y977900D03*
D11*
X431800Y996696D02*
X431800Y1009904D01*
X457200Y1009904D02*
X457200Y996696D01*
X457200Y1072896D02*
X457200Y1086104D01*
X431800Y1086104D02*
X431800Y1072896D01*
X482600Y1009904D02*
X482600Y996696D01*
X508000Y996696D02*
X508000Y1009904D01*
X482600Y1072896D02*
X482600Y1086104D01*
X508000Y1086104D02*
X508000Y1072896D01*
X247904Y965200D02*
X234696Y965200D01*
X234696Y990600D02*
X247904Y990600D01*
X247904Y1117600D02*
X234696Y1117600D01*
X234696Y1143000D02*
X247904Y1143000D01*
X247904Y1016000D02*
X234696Y1016000D01*
X234696Y1041400D02*
X247904Y1041400D01*
X247904Y1092200D02*
X234696Y1092200D01*
X234696Y1066800D02*
X247904Y1066800D01*
X171704Y1143000D02*
X158496Y1143000D01*
X158496Y1117600D02*
X171704Y1117600D01*
X171704Y1092200D02*
X158496Y1092200D01*
X158496Y1066800D02*
X171704Y1066800D01*
X171704Y1041400D02*
X158496Y1041400D01*
X158496Y1016000D02*
X171704Y1016000D01*
X171704Y990600D02*
X158496Y990600D01*
X158496Y965200D02*
X171704Y965200D01*
X1110996Y939800D02*
X1124204Y939800D01*
X1124204Y965200D02*
X1110996Y965200D01*
X1048004Y965200D02*
X1034796Y965200D01*
X1034796Y939800D02*
X1048004Y939800D01*
X1110996Y990600D02*
X1124204Y990600D01*
X1124204Y1016000D02*
X1110996Y1016000D01*
X1048004Y990600D02*
X1034796Y990600D01*
X1034796Y1016000D02*
X1048004Y1016000D01*
D12*
X50800Y63500D03*
X76200Y63500D03*
X241300Y63500D03*
X266700Y63500D03*
X419100Y63500D03*
X444500Y63500D03*
X609600Y63500D03*
X635000Y63500D03*
X812800Y63500D03*
X838200Y63500D03*
X1016000Y63500D03*
X1041400Y63500D03*
X1206500Y63500D03*
X1231900Y63500D03*
X1371600Y63500D03*
X1397000Y63500D03*
D13*
X927100Y914400D03*
X927100Y838200D03*
X1003300Y1028700D03*
X1003300Y1104900D03*
D14*
X444500Y883412D02*
X444500Y869188D01*
X469900Y869188D02*
X469900Y883412D01*
D15*
X821690Y622300D03*
X905510Y622300D03*
X821690Y647700D03*
X905510Y647700D03*
X821690Y673100D03*
X905510Y673100D03*
X821690Y698500D03*
X905510Y698500D03*
X821690Y723900D03*
X905510Y723900D03*
X821690Y749300D03*
X905510Y749300D03*
X821690Y774700D03*
X905510Y774700D03*
X1342390Y622300D03*
X1426210Y622300D03*
X1342390Y647700D03*
X1426210Y647700D03*
X1342390Y673100D03*
X1426210Y673100D03*
X1342390Y698500D03*
X1426210Y698500D03*
X1342390Y723900D03*
X1426210Y723900D03*
X1342390Y749300D03*
X1426210Y749300D03*
X1342390Y774700D03*
X1426210Y774700D03*
X1177290Y622300D03*
X1261110Y622300D03*
X1177290Y647700D03*
X1261110Y647700D03*
X1177290Y673100D03*
X1261110Y673100D03*
X1177290Y698500D03*
X1261110Y698500D03*
X1177290Y723900D03*
X1261110Y723900D03*
X1177290Y749300D03*
X1261110Y749300D03*
X1177290Y774700D03*
X1261110Y774700D03*
X999490Y622300D03*
X1083310Y622300D03*
X999490Y647700D03*
X1083310Y647700D03*
X999490Y673100D03*
X1083310Y673100D03*
X999490Y698500D03*
X1083310Y698500D03*
X999490Y723900D03*
X1083310Y723900D03*
X999490Y749300D03*
X1083310Y749300D03*
X999490Y774700D03*
X1083310Y774700D03*
D16*
X740410Y622300D03*
X656590Y622300D03*
X740410Y647700D03*
X656590Y647700D03*
X740410Y673100D03*
X656590Y673100D03*
X740410Y698500D03*
X656590Y698500D03*
X740410Y723900D03*
X656590Y723900D03*
X740410Y749300D03*
X656590Y749300D03*
X740410Y774700D03*
X656590Y774700D03*
D15*
X491490Y622300D03*
X575310Y622300D03*
X491490Y647700D03*
X575310Y647700D03*
X491490Y673100D03*
X575310Y673100D03*
X491490Y698500D03*
X575310Y698500D03*
X491490Y723900D03*
X575310Y723900D03*
X491490Y749300D03*
X575310Y749300D03*
X491490Y774700D03*
X575310Y774700D03*
X313690Y622300D03*
X397510Y622300D03*
X313690Y647700D03*
X397510Y647700D03*
X313690Y673100D03*
X397510Y673100D03*
X313690Y698500D03*
X397510Y698500D03*
X313690Y723900D03*
X397510Y723900D03*
X313690Y749300D03*
X397510Y749300D03*
X313690Y774700D03*
X397510Y774700D03*
X148590Y622300D03*
X232410Y622300D03*
X148590Y647700D03*
X232410Y647700D03*
X148590Y673100D03*
X232410Y673100D03*
X148590Y698500D03*
X232410Y698500D03*
X148590Y723900D03*
X232410Y723900D03*
X148590Y749300D03*
X232410Y749300D03*
X148590Y774700D03*
X232410Y774700D03*
D11*
X983996Y508000D02*
X997204Y508000D01*
X997204Y482600D02*
X983996Y482600D01*
X983996Y355600D02*
X997204Y355600D01*
X1060196Y355600D02*
X1073404Y355600D01*
X997204Y457200D02*
X983996Y457200D01*
X983996Y431800D02*
X997204Y431800D01*
X997204Y381000D02*
X983996Y381000D01*
X983996Y406400D02*
X997204Y406400D01*
X1060196Y381000D02*
X1073404Y381000D01*
X1073404Y406400D02*
X1060196Y406400D01*
X1060196Y431800D02*
X1073404Y431800D01*
X1073404Y457200D02*
X1060196Y457200D01*
X1060196Y482600D02*
X1073404Y482600D01*
X1073404Y508000D02*
X1060196Y508000D01*
X304800Y273304D02*
X304800Y260096D01*
X279400Y260096D02*
X279400Y273304D01*
X152400Y273304D02*
X152400Y260096D01*
X152400Y197104D02*
X152400Y183896D01*
X254000Y260096D02*
X254000Y273304D01*
X228600Y273304D02*
X228600Y260096D01*
X177800Y260096D02*
X177800Y273304D01*
X203200Y273304D02*
X203200Y260096D01*
X177800Y197104D02*
X177800Y183896D01*
X203200Y183896D02*
X203200Y197104D01*
X228600Y197104D02*
X228600Y183896D01*
X254000Y183896D02*
X254000Y197104D01*
X279400Y197104D02*
X279400Y183896D01*
X304800Y183896D02*
X304800Y197104D01*
X838200Y260096D02*
X838200Y273304D01*
X812800Y273304D02*
X812800Y260096D01*
X685800Y260096D02*
X685800Y273304D01*
X685800Y197104D02*
X685800Y183896D01*
X787400Y260096D02*
X787400Y273304D01*
X762000Y273304D02*
X762000Y260096D01*
X711200Y260096D02*
X711200Y273304D01*
X736600Y273304D02*
X736600Y260096D01*
X711200Y197104D02*
X711200Y183896D01*
X736600Y183896D02*
X736600Y197104D01*
X762000Y197104D02*
X762000Y183896D01*
X787400Y183896D02*
X787400Y197104D01*
X812800Y197104D02*
X812800Y183896D01*
X838200Y183896D02*
X838200Y197104D01*
X1409700Y260096D02*
X1409700Y273304D01*
X1384300Y273304D02*
X1384300Y260096D01*
X1257300Y260096D02*
X1257300Y273304D01*
X1257300Y197104D02*
X1257300Y183896D01*
X1358900Y260096D02*
X1358900Y273304D01*
X1333500Y273304D02*
X1333500Y260096D01*
X1282700Y260096D02*
X1282700Y273304D01*
X1308100Y273304D02*
X1308100Y260096D01*
X1282700Y197104D02*
X1282700Y183896D01*
X1308100Y183896D02*
X1308100Y197104D01*
X1333500Y197104D02*
X1333500Y183896D01*
X1358900Y183896D02*
X1358900Y197104D01*
X1384300Y197104D02*
X1384300Y183896D01*
X1409700Y183896D02*
X1409700Y197104D01*
X1352804Y508000D02*
X1339596Y508000D01*
X1339596Y482600D02*
X1352804Y482600D01*
X1352804Y355600D02*
X1339596Y355600D01*
X1415796Y355600D02*
X1429004Y355600D01*
X1352804Y457200D02*
X1339596Y457200D01*
X1339596Y431800D02*
X1352804Y431800D01*
X1352804Y381000D02*
X1339596Y381000D01*
X1339596Y406400D02*
X1352804Y406400D01*
X1415796Y381000D02*
X1429004Y381000D01*
X1429004Y406400D02*
X1415796Y406400D01*
X1415796Y431800D02*
X1429004Y431800D01*
X1429004Y457200D02*
X1415796Y457200D01*
X1415796Y482600D02*
X1429004Y482600D01*
X1429004Y508000D02*
X1415796Y508000D01*
X1187704Y508000D02*
X1174496Y508000D01*
X1174496Y482600D02*
X1187704Y482600D01*
X1187704Y355600D02*
X1174496Y355600D01*
X1250696Y355600D02*
X1263904Y355600D01*
X1187704Y457200D02*
X1174496Y457200D01*
X1174496Y431800D02*
X1187704Y431800D01*
X1187704Y381000D02*
X1174496Y381000D01*
X1174496Y406400D02*
X1187704Y406400D01*
X1250696Y381000D02*
X1263904Y381000D01*
X1263904Y406400D02*
X1250696Y406400D01*
X1250696Y431800D02*
X1263904Y431800D01*
X1263904Y457200D02*
X1250696Y457200D01*
X1250696Y482600D02*
X1263904Y482600D01*
X1263904Y508000D02*
X1250696Y508000D01*
X679704Y508000D02*
X666496Y508000D01*
X666496Y482600D02*
X679704Y482600D01*
X679704Y355600D02*
X666496Y355600D01*
X742696Y355600D02*
X755904Y355600D01*
X679704Y457200D02*
X666496Y457200D01*
X666496Y431800D02*
X679704Y431800D01*
X679704Y381000D02*
X666496Y381000D01*
X666496Y406400D02*
X679704Y406400D01*
X742696Y381000D02*
X755904Y381000D01*
X755904Y406400D02*
X742696Y406400D01*
X742696Y431800D02*
X755904Y431800D01*
X755904Y457200D02*
X742696Y457200D01*
X742696Y482600D02*
X755904Y482600D01*
X755904Y508000D02*
X742696Y508000D01*
X501904Y508000D02*
X488696Y508000D01*
X488696Y482600D02*
X501904Y482600D01*
X501904Y355600D02*
X488696Y355600D01*
X564896Y355600D02*
X578104Y355600D01*
X501904Y457200D02*
X488696Y457200D01*
X488696Y431800D02*
X501904Y431800D01*
X501904Y381000D02*
X488696Y381000D01*
X488696Y406400D02*
X501904Y406400D01*
X564896Y381000D02*
X578104Y381000D01*
X578104Y406400D02*
X564896Y406400D01*
X564896Y431800D02*
X578104Y431800D01*
X578104Y457200D02*
X564896Y457200D01*
X564896Y482600D02*
X578104Y482600D01*
X578104Y508000D02*
X564896Y508000D01*
X324104Y508000D02*
X310896Y508000D01*
X310896Y482600D02*
X324104Y482600D01*
X324104Y355600D02*
X310896Y355600D01*
X387096Y355600D02*
X400304Y355600D01*
X324104Y457200D02*
X310896Y457200D01*
X310896Y431800D02*
X324104Y431800D01*
X324104Y381000D02*
X310896Y381000D01*
X310896Y406400D02*
X324104Y406400D01*
X387096Y381000D02*
X400304Y381000D01*
X400304Y406400D02*
X387096Y406400D01*
X387096Y431800D02*
X400304Y431800D01*
X400304Y457200D02*
X387096Y457200D01*
X387096Y482600D02*
X400304Y482600D01*
X400304Y508000D02*
X387096Y508000D01*
X159004Y508000D02*
X145796Y508000D01*
X145796Y482600D02*
X159004Y482600D01*
X159004Y355600D02*
X145796Y355600D01*
X221996Y355600D02*
X235204Y355600D01*
X159004Y457200D02*
X145796Y457200D01*
X145796Y431800D02*
X159004Y431800D01*
X159004Y381000D02*
X145796Y381000D01*
X145796Y406400D02*
X159004Y406400D01*
X221996Y381000D02*
X235204Y381000D01*
X235204Y406400D02*
X221996Y406400D01*
X221996Y431800D02*
X235204Y431800D01*
X235204Y457200D02*
X221996Y457200D01*
X221996Y482600D02*
X235204Y482600D01*
X235204Y508000D02*
X221996Y508000D01*
X818896Y508000D02*
X832104Y508000D01*
X832104Y482600D02*
X818896Y482600D01*
X818896Y355600D02*
X832104Y355600D01*
X895096Y355600D02*
X908304Y355600D01*
X832104Y457200D02*
X818896Y457200D01*
X818896Y431800D02*
X832104Y431800D01*
X832104Y381000D02*
X818896Y381000D01*
X818896Y406400D02*
X832104Y406400D01*
X895096Y381000D02*
X908304Y381000D01*
X908304Y406400D02*
X895096Y406400D01*
X895096Y431800D02*
X908304Y431800D01*
X908304Y457200D02*
X895096Y457200D01*
X895096Y482600D02*
X908304Y482600D01*
X908304Y508000D02*
X895096Y508000D01*
D17*
X1370076Y483108D03*
X719328Y173736D03*
X826008Y899160D03*
X563880Y445008D03*
X809244Y464820D03*
X982980Y984504D03*
M02*
